# xmcd
#
# Track frame offsets: 
#        150
#        17625
#        32775
#        52125
#        82285
#        98325
#
# Disc length: 1544 seconds
#
# Revision: 0
# Processed by: cddbd v1.5.2PL0 Copyright (c) Steve Scherf et al.
# Submitted via: ExactAudioCopy v1.3
#
DISCID=45060606
DTITLE=Various Artist - Fast Forward Spring 99 Pop Country
DYEAR=1999
DGENRE=Country
TTITLE0=Rick McGale - Number 22
TTITLE1=Kenny Colman - As Time Goes By
TTITLE2=Jason McCoy - There's More Where That Came From
TTITLE3=Solitudes - A Path To Solitude
TTITLE4=Farmer's Daughter - Cornfields Or Cadillacs
TTITLE5=Heather Myles - True Love
EXTD=
EXTT0=
EXTT1=
EXTT2=
EXTT3=
EXTT4=
EXTT5=
PLAYORDER=
